HIERARCHY
ROOT root
{
	OFFSET 0.000000 0.000000 0.000000
	CHANNELS 6 Xposition Yposition Zposition Zrotation Yrotation Xrotation
	JOINT lhip
	{
		OFFSET 0.058581 -0.082280 -0.017664
		CHANNELS 3 Zrotation Yrotation Xrotation
		JOINT lknee
		{
			OFFSET 0.043451 -0.386469 0.008037
			CHANNELS 3 Zrotation Yrotation Xrotation
			JOINT lankle
			{
				OFFSET -0.014790 -0.426874 -0.037428
				CHANNELS 3 Zrotation Yrotation Xrotation
				JOINT ltoe
				{
					OFFSET 0.041054 -0.060286 0.122042
					CHANNELS 3 Zrotation Yrotation Xrotation
					End Site
					{
						OFFSET 0.000000 0.000000 0.000000
					}
				}
			}
		}
	}
	JOINT rhip
	{
		OFFSET -0.060310 -0.090513 -0.013543
		CHANNELS 3 Zrotation Yrotation Xrotation
		JOINT rknee
		{
			OFFSET -0.043257 -0.383688 -0.004843
			CHANNELS 3 Zrotation Yrotation Xrotation
			JOINT rankle
			{
				OFFSET 0.019056 -0.420046 -0.034562
				CHANNELS 3 Zrotation Yrotation Xrotation
				JOINT rtoe
				{
					OFFSET -0.034840 -0.062106 0.130323
					CHANNELS 3 Zrotation Yrotation Xrotation
					End Site
					{
						OFFSET 0.000000 0.000000 0.000000
					}
				}
			}
		}
	}
	JOINT lowerback
	{
		OFFSET 0.004439 0.124404 -0.038385
		CHANNELS 3 Zrotation Yrotation Xrotation
		JOINT upperback
		{
			OFFSET 0.004488 0.137956 0.026820
			CHANNELS 3 Zrotation Yrotation Xrotation
			JOINT chest
			{
				OFFSET -0.002265 0.056032 0.002855
				CHANNELS 3 Zrotation Yrotation Xrotation
				JOINT lowerneck
				{
					OFFSET -0.013390 0.211636 -0.033468
					CHANNELS 3 Zrotation Yrotation Xrotation
					JOINT upperneck
					{
						OFFSET 0.010113 0.088937 0.050410
						CHANNELS 3 Zrotation Yrotation Xrotation
						End Site
						{
							OFFSET 0.000000 0.000000 0.000000
						}
					}
				}
				JOINT lclavicle
				{
					OFFSET 0.071702 0.114000 -0.018898
					CHANNELS 3 Zrotation Yrotation Xrotation
					JOINT lshoulder
					{
						OFFSET 0.122921 0.045205 -0.019046
						CHANNELS 3 Zrotation Yrotation Xrotation
						JOINT lelbow
						{
							OFFSET 0.255332 -0.015649 -0.022946
							CHANNELS 3 Zrotation Yrotation Xrotation
							JOINT lwrist
							{
								OFFSET 0.265709 0.012698 -0.007375
								CHANNELS 3 Zrotation Yrotation Xrotation
								End Site
								{
									OFFSET 0.000000 0.000000 0.000000
								}
							}
						}
					}
				}
				JOINT rclavicle
				{
					OFFSET -0.082954 0.112472 -0.023707
					CHANNELS 3 Zrotation Yrotation Xrotation
					JOINT rshoulder
					{
						OFFSET -0.113228 0.046853 -0.008472
						CHANNELS 3 Zrotation Yrotation Xrotation
						JOINT relbow
						{
							OFFSET -0.260127 -0.014369 -0.031269
							CHANNELS 3 Zrotation Yrotation Xrotation
							JOINT rwrist
							{
								OFFSET -0.269108 0.006794 -0.006027
								CHANNELS 3 Zrotation Yrotation Xrotation
								End Site
								{
									OFFSET 0.000000 0.000000 0.000000
								}
							}
						}
					}
				}
			}
		}
	}
}
MOTION
Frames: 17
Frame Time: 0.033333
0.326691 0.141516 0.987826 86.098431 -0.618011 97.678132 9.244514 4.093646 -15.276888 -3.156802 4.620459 13.300310 -0.885646 3.508167 -4.256195 0.000000 -0.000000 0.000000 -5.008089 -1.098025 -18.988939 -1.579397 -8.457713 21.333571 3.956488 0.281177 -12.195838 0.000000 -0.000000 0.000000 -2.674491 1.865935 23.095709 -0.241376 -3.699220 16.605160 0.438989 1.956620 -7.013033 -0.888025 6.603633 17.256729 11.614949 -0.013747 -23.020028 -8.166552 -25.763233 3.853352 -79.565056 -34.161871 36.394126 175.759265 -57.112942 -142.083120 44.317150 -18.833060 -11.458212 1.617240 29.030613 7.081596 81.306503 30.092386 25.413196 178.190482 47.068862 -158.758044 -50.515647 13.704506 -24.755502 
0.326730 0.138306 0.990386 86.127651 -0.785396 97.589673 9.273847 3.872975 -14.727013 -3.013124 5.134650 12.400374 -1.171287 2.971845 -3.078106 0.000000 -0.000000 0.000000 -5.058467 -1.215569 -18.319246 -1.513054 -9.024349 20.259689 3.927018 1.037629 -11.487688 0.000000 -0.000000 0.000000 -2.851802 1.715114 22.109307 -0.500313 -3.954368 18.776269 0.266406 2.159643 -7.819202 -0.325180 6.900752 16.794229 11.487900 -0.601608 -22.788335 -7.687550 -26.264601 3.550770 -79.606831 -34.103566 36.435124 174.138121 -56.985094 -140.270560 42.081619 -20.508941 -11.980005 1.817644 29.326466 6.761640 80.584615 30.433748 23.945941 -178.939613 46.801483 -154.646948 -44.286615 17.409393 -21.485247 
0.327294 0.136025 0.993681 86.198078 -0.860630 97.752016 9.337987 3.846005 -14.377629 -3.028233 5.213566 11.437119 -1.633229 2.561412 -1.905896 0.000000 -0.000000 0.000000 -4.915782 -1.373323 -17.617032 -1.375246 -9.071883 18.653698 4.051045 1.123147 -10.596140 0.000000 -0.000000 0.000000 -2.929596 1.706228 21.677005 -0.488364 -4.140851 18.894477 0.262824 2.093226 -7.910642 -0.224825 6.891545 16.425775 11.292809 -0.646333 -22.206328 -7.674389 -26.293713 3.564748 -79.574458 -34.117226 36.499372 173.979579 -56.768404 -140.190985 41.723730 -20.285654 -11.505031 1.841789 29.329657 6.801005 80.575825 30.610226 24.233937 -178.668795 46.760106 -154.579743 -43.898630 17.336143 -21.377300 
0.327960 0.134502 0.996602 86.348094 -0.862461 97.836089 9.413516 3.873739 -14.119039 -3.104225 4.677449 10.839937 -1.970144 2.479727 -1.117889 0.000000 -0.000000 0.000000 -4.712903 -1.566857 -16.878949 -1.177495 -8.731447 17.221779 4.167363 0.775145 -9.850226 0.000000 -0.000000 0.000000 -2.972754 1.779820 21.295547 -0.249127 -4.318718 19.125787 0.272895 2.136826 -7.994559 -0.335172 6.655753 15.946938 11.147716 -0.597234 -21.993469 -7.852265 -26.432661 3.975523 -79.208531 -34.324182 36.589017 174.897443 -56.211325 -141.246260 42.332068 -17.790517 -10.339691 2.019550 29.376295 7.210217 80.304429 30.487019 24.851712 -179.481046 46.359993 -155.671278 -47.404943 14.701235 -19.941346 
0.328581 0.133730 0.997892 86.537700 -0.679171 97.736667 9.681032 3.755187 -14.007694 -3.044227 4.449260 10.902848 -2.269302 2.206185 -0.982883 0.000000 -0.000000 0.000000 -4.442728 -1.550973 -16.315369 -1.178120 -9.000161 16.554703 4.226605 0.902030 -9.656881 0.000000 -0.000000 0.000000 -2.827245 1.859426 21.667725 0.018123 -4.241511 18.304257 0.568524 2.055229 -7.699668 -0.164968 7.009154 16.056964 10.978302 -0.948035 -21.996511 -7.794627 -26.165985 3.998886 -80.196300 -34.509858 36.784185 174.635384 -56.747761 -140.546903 43.233903 -19.629322 -11.099461 2.256856 29.372557 7.376665 80.674332 30.228236 24.707543 -179.599768 46.312525 -155.682366 -46.940713 15.180288 -20.083546 
0.328433 0.133805 0.996760 86.648295 -0.536969 97.452552 9.856574 3.720634 -14.091045 -3.064707 4.158031 11.641389 -2.142335 2.287919 -1.639308 0.000000 -0.000000 0.000000 -4.314243 -1.486703 -16.160155 -1.177814 -8.926404 16.920781 4.120985 0.741500 -10.130449 0.000000 -0.000000 0.000000 -2.758707 1.937977 22.155101 0.245458 -4.147206 17.997477 0.722373 2.065401 -7.605707 -0.122248 7.016261 16.180277 11.050081 -0.892209 -22.118580 -7.810697 -25.931205 4.164253 -80.333588 -34.544515 36.879921 175.235816 -56.725016 -141.171276 43.407931 -19.335077 -11.776005 2.453660 29.404198 7.624142 80.753020 30.281144 24.757230 -179.801186 46.243704 -155.830302 -47.017003 14.942661 -20.152342 
0.327796 0.135017 0.993622 86.763279 -0.320671 97.359453 9.958157 3.681987 -14.614659 -2.952942 4.130920 12.690466 -1.831591 2.498361 -2.816860 0.000000 -0.000000 0.000000 -4.240111 -1.365419 -16.702638 -1.269267 -9.027025 18.147580 4.033646 0.646230 -10.892160 0.000000 -0.000000 0.000000 -2.561422 1.986493 22.819523 0.454592 -3.984683 16.950249 0.934723 2.037590 -7.266218 -0.129512 7.062780 16.774142 11.213694 -0.803785 -22.394550 -8.070982 -25.684369 4.364443 -80.550631 -34.430652 36.891171 175.531594 -56.974363 -141.420941 43.809736 -19.621681 -12.034197 2.616358 29.343874 7.853283 80.778645 29.966735 24.581819 179.794605 46.309356 -156.169127 -47.327857 15.033704 -20.479099 
0.326804 0.137345 0.990430 86.836938 -0.163667 97.106435 9.899634 3.748364 -14.869503 -2.862282 4.135563 13.404759 -1.216375 2.896304 -3.616691 0.000000 -0.000000 0.000000 -4.355376 -1.247978 -17.084514 -1.302157 -9.127452 19.261764 3.938206 0.583525 -11.382734 0.000000 -0.000000 0.000000 -2.392049 1.905342 23.206999 0.506627 -3.880647 17.102581 0.900768 2.097949 -7.208256 0.081415 7.106904 16.821714 11.163871 -0.751032 -22.550367 -7.880334 -25.594281 4.057492 -80.690825 -34.473561 36.875258 175.560749 -57.215945 -141.523248 43.877740 -19.522338 -12.760539 2.621128 29.354381 7.668047 80.836345 29.889698 24.528007 179.748881 46.470589 -156.222449 -47.410115 15.103089 -20.443559 
0.326144 0.140678 0.989039 87.051996 -0.113177 97.143939 9.725621 3.802069 -15.121613 -2.860637 4.144609 13.495538 -1.045349 2.858848 -3.714188 0.000000 -0.000000 0.000000 -4.564977 -1.305351 -17.350229 -1.364729 -9.288334 19.577758 4.042736 0.574143 -11.279892 0.000000 -0.000000 0.000000 -2.304092 1.859454 23.325049 0.562201 -3.885159 17.209099 0.917081 2.052305 -7.154095 0.147673 7.181457 16.790314 11.189558 -0.606375 -22.688276 -7.960201 -25.498512 3.952120 -80.611200 -34.495911 36.671217 175.291477 -57.546677 -141.341986 43.514156 -19.870690 -13.479735 2.642400 29.176611 7.655087 80.652179 29.914750 24.358650 179.702614 46.756508 -156.297930 -47.107343 15.283124 -20.549605 
0.325718 0.144776 0.989883 87.375420 -0.296386 97.324701 9.384587 3.665263 -15.233701 -3.027073 4.243473 13.117236 -1.110018 2.561537 -3.354191 0.000000 -0.000000 0.000000 -5.005365 -1.559250 -17.274449 -1.379063 -9.491430 19.038661 4.221661 0.673980 -10.742360 0.000000 -0.000000 0.000000 -2.516051 1.789093 22.676416 0.473105 -4.214399 18.480946 0.845012 2.075035 -7.638495 0.364182 6.983505 16.658975 11.169279 -0.121508 -22.483330 -8.141721 -25.423915 3.996907 -80.123366 -33.946134 36.154124 174.219185 -57.495320 -140.042297 41.967551 -19.768590 -12.798927 2.580259 29.118503 7.357622 79.849407 30.692085 24.108480 -178.800358 47.523646 -154.816694 -44.255728 15.879942 -21.817224 
0.326288 0.149874 0.991821 87.560159 -0.360514 97.478187 9.042876 3.603394 -14.896625 -3.146315 4.373587 12.173804 -1.273787 2.318338 -2.896021 0.000000 -0.000000 0.000000 -5.361505 -1.883940 -16.741764 -1.213649 -9.432256 17.754136 4.566023 0.688981 -9.867649 0.000000 -0.000000 0.000000 -2.398686 1.978875 22.678281 0.431449 -4.117765 17.778687 0.908858 1.826501 -7.548368 0.331773 6.354283 17.332764 11.270670 0.584834 -22.220740 -9.119335 -25.258116 4.621747 -79.582576 -33.047719 35.531584 172.820164 -58.337006 -137.916684 39.945725 -20.195651 -12.047335 2.451288 28.468163 7.011910 79.072331 30.919475 23.135055 -176.306950 48.997751 -152.682751 -40.386667 15.813053 -24.243064 
0.326543 0.155925 0.993296 87.589435 -0.330069 97.601858 8.653804 3.562593 -14.502602 -3.198620 4.620047 11.223673 -1.187106 2.172818 -2.803756 0.000000 -0.000000 0.000000 -5.666613 -2.142553 -16.240044 -1.063611 -9.285471 16.493226 4.981603 0.724830 -9.006946 0.000000 -0.000000 0.000000 -2.141621 2.046421 22.382197 0.281990 -4.073286 17.437906 0.873152 1.815223 -7.487977 0.282665 5.780780 17.567609 11.160662 0.882078 -21.863750 -9.622857 -24.755391 4.673705 -79.250098 -32.193495 34.823879 169.892794 -59.858582 -134.806332 35.731015 -20.417668 -11.693734 2.176091 28.338978 6.584493 77.526556 32.227816 21.961784 -171.408203 51.013260 -148.432469 -35.195323 15.286033 -26.010145 
0.326677 0.161642 0.993504 87.376370 -0.265398 97.802627 8.168849 3.613113 -14.253505 -3.186782 4.734039 10.359594 -0.751176 2.337368 -2.887680 0.000000 -0.000000 0.000000 -5.898906 -2.289095 -16.124824 -0.958248 -8.899619 15.560826 5.247424 0.631111 -8.492470 0.000000 -0.000000 0.000000 -1.958911 2.331284 21.983968 0.258550 -3.924104 17.207670 0.673499 2.077614 -7.698135 0.307623 5.331058 17.295623 11.056369 0.806682 -21.585548 -9.805472 -24.570455 4.607365 -78.031052 -32.233822 34.239297 167.634179 -62.512348 -132.824591 30.445832 -20.179285 -14.194035 2.390808 28.713773 6.665407 77.089797 33.547212 21.579786 -165.426273 52.636895 -142.016469 -32.537397 14.049578 -26.414586 
0.326080 0.167630 0.992901 86.929422 -0.341970 97.818702 7.630543 3.683667 -14.110669 -3.244540 4.721046 10.031141 -0.412822 2.767516 -3.040869 0.000000 -0.000000 0.000000 -6.282719 -2.311941 -16.157409 -1.003091 -8.417925 15.147775 5.534624 0.570506 -8.090251 0.000000 -0.000000 0.000000 -2.211615 3.050125 21.822784 0.421712 -3.510552 16.995851 0.839174 2.288233 -7.555732 0.296529 5.448757 16.914360 11.215068 0.170309 -21.840244 -8.935778 -24.923435 4.111404 -77.100306 -33.823749 33.548558 162.631045 -63.814857 -129.402012 28.124427 -18.593393 -15.496557 2.885874 29.264872 7.209778 76.341559 33.567005 20.820207 -163.205300 53.406867 -139.414150 -32.530618 14.072097 -24.463961 
0.325326 0.174427 0.992051 86.899723 -0.341476 97.793007 7.234504 3.595009 -14.322654 -3.391162 4.544173 10.299070 -0.227590 3.187475 -3.348245 0.000000 -0.000000 0.000000 -6.682893 -2.478085 -16.185397 -0.973940 -8.102693 14.975071 5.863592 0.394554 -7.813713 0.000000 -0.000000 0.000000 -2.241512 3.649597 21.962633 0.764375 -3.338652 16.421032 1.193997 2.270971 -7.020041 -0.076493 5.737249 16.431434 11.268099 -0.521833 -21.991356 -8.097862 -25.071481 3.349085 -76.372651 -36.087755 32.063199 156.998259 -63.699264 -125.254308 27.686034 -17.184294 -16.371618 3.780492 29.277257 7.798092 76.026234 32.081339 20.326525 -166.527312 53.702962 -143.566931 -31.941886 14.141840 -24.270848 
0.324999 0.182260 0.991492 87.348576 -0.253520 97.696444 6.866475 3.399838 -14.497279 -3.492391 4.223899 10.547588 0.053364 3.301360 -3.760800 0.000000 -0.000000 0.000000 -6.976417 -2.855275 -16.049892 -1.081896 -7.965705 14.897854 6.264817 0.256907 -7.687135 0.000000 -0.000000 0.000000 -2.125061 3.742680 22.133905 1.154042 -3.625925 15.890408 1.554234 2.166713 -6.508917 -0.520768 5.898031 16.335318 10.925212 -0.551474 -21.771144 -7.740940 -24.912225 2.874659 -76.340333 -36.975155 31.126774 153.409695 -63.187100 -123.387329 28.963232 -15.682624 -15.201116 4.205872 29.169767 8.172024 74.938277 30.329470 20.590242 -171.546074 54.104683 -149.249768 -33.739536 14.928769 -24.173812 
0.324938 0.190532 0.990997 87.713429 -0.106767 97.617498 6.557133 3.213947 -14.533885 -3.636721 4.079297 10.618116 0.375955 3.350307 -4.209136 0.000000 -0.000000 0.000000 -7.310388 -3.173980 -15.895499 -1.124166 -7.979214 14.807702 6.600387 0.324038 -7.427627 0.000000 -0.000000 0.000000 -2.095782 3.604332 22.235589 1.434699 -3.912210 15.742365 1.776729 2.196409 -6.349459 -0.546738 5.556103 16.350891 10.592823 -0.169963 -21.464612 -7.868823 -24.506324 3.114080 -76.500546 -36.253069 31.257092 155.096154 -63.322410 -125.147000 29.374954 -15.999117 -15.302041 4.341891 28.699614 8.253902 73.129226 30.433270 19.706006 -171.893762 54.621611 -148.829592 -33.463516 16.124814 -22.162729 
